<svg width="42" height="42" viewBox="0 0 42 42" fill="none" xmlns="http://www.w3.org/2000/svg">
<path d="M18.695 22.1567C18.695 23.8465 17.4891 25.2165 15.9633 25.2165C14.4704 25.2165 13.2317 23.8465 13.2317 22.1567C13.2317 20.4668 14.4375 19.0969 15.9633 19.0969C17.4973 19.0969 18.7196 20.4833 18.695 22.1567Z" fill="#C90000"/>
<path d="M28.7765 22.1567C28.7765 23.8465 27.5789 25.2165 26.0449 25.2165C24.5519 25.2165 23.3132 23.8465 23.3132 22.1567C23.3132 20.4668 24.5191 19.0969 26.0449 19.0969C27.5871 19.0969 28.8011 20.4833 28.7765 22.1567Z" fill="#C90000"/>
<path d="M21 0C9.40078 0 0 9.40078 0 21C0 32.5992 9.40078 42 21 42C32.5992 42 42 32.5992 42 21C42 9.40078 32.5992 0 21 0ZM36.0035 28.7355C33.4113 30.6387 30.893 31.8035 28.4156 32.5664C28.3746 32.5746 28.3336 32.5664 28.309 32.5336C27.7348 31.7379 27.218 30.893 26.7586 30.0152C26.734 29.966 26.7586 29.9004 26.8078 29.884C27.6363 29.5723 28.4156 29.1949 29.1785 28.7602C29.2359 28.7273 29.2441 28.6371 29.1867 28.5961C29.0227 28.473 28.8668 28.35 28.7191 28.227C28.6863 28.2023 28.6535 28.2023 28.6207 28.2188C23.7152 30.4828 18.334 30.4828 13.3711 28.2188C13.3383 28.2023 13.2973 28.2105 13.2727 28.2352C13.1168 28.3582 12.9609 28.4813 12.8051 28.6043C12.7477 28.6453 12.7559 28.7273 12.8133 28.7684C13.568 29.2031 14.3555 29.5805 15.184 29.9004C15.2414 29.925 15.266 29.9824 15.2332 30.0316C14.7902 30.9176 14.2652 31.7543 13.6828 32.55C13.6582 32.5828 13.6172 32.5992 13.5762 32.5828C11.107 31.8117 8.59688 30.6551 5.99648 28.752C5.97187 28.7355 5.96367 28.7109 5.95547 28.6781C5.43047 23.018 6.50508 17.284 10.4426 11.4023C10.4508 11.3859 10.4672 11.3777 10.4836 11.3695C12.4195 10.4836 14.4949 9.82734 16.6605 9.45C16.7016 9.4418 16.7426 9.46641 16.759 9.49922C17.0297 9.975 17.3332 10.582 17.5383 11.0824C19.827 10.7297 22.1402 10.7297 24.4781 11.0824C24.6832 10.5984 24.9785 9.975 25.2492 9.49922C25.2738 9.46641 25.3066 9.4418 25.3477 9.45C27.5133 9.82734 29.5887 10.4754 31.5246 11.3695C31.541 11.3777 31.5574 11.3859 31.5656 11.4023C34.9945 16.4391 36.6844 22.132 36.0527 28.6781C36.0445 28.6863 36.0281 28.7109 36.0035 28.7355Z" fill="#C90000"/>
</svg>
