<svg width="40" height="49" viewBox="0 0 40 49" fill="none" xmlns="http://www.w3.org/2000/svg">
<path d="M21.1556 17.7561C20.7215 17.7167 20.2677 17.6969 19.8336 17.6969C19.5574 17.6969 19.3009 17.6969 19.0247 17.7167C15.6902 17.8745 12.5925 19.0189 10.0473 20.8538L0.280651 3.11605C0.0438848 2.66225 0.0438848 2.1098 0.300382 1.65599C0.576609 1.20219 1.05014 0.925964 1.58287 0.925964H10.4616C10.9943 0.925964 11.4679 1.20219 11.7441 1.65599L20.0507 15.862L21.1556 17.7561Z" fill="#1EC790"/>
<path d="M39.3864 3.11605L29.6198 20.8538C28.2386 19.8476 26.6996 19.0583 25.0423 18.5256L21.7275 12.8432L27.9032 1.69546C28.1794 1.22192 28.6727 0.925964 29.2054 0.925964H38.0842C38.6169 0.925964 39.0904 1.20219 39.3666 1.65599C39.6231 2.1098 39.6231 2.66225 39.3864 3.11605Z" fill="#1EC790"/>
<path d="M19.8336 20.6566C12.2176 20.6566 6.02222 26.8519 6.02222 34.4679C6.02222 42.0839 12.2176 48.2793 19.8336 48.2793C27.4496 48.2793 33.645 42.0839 33.645 34.4679C33.645 26.8519 27.4496 20.6566 19.8336 20.6566ZM27.3055 33.9885L24.6202 36.7409L25.2575 40.6436C25.3483 41.202 25.1135 41.7643 24.6478 42.0918C24.3953 42.2694 24.0954 42.3601 23.7975 42.3601C23.5508 42.3601 23.3042 42.299 23.0812 42.1747L19.8336 40.3812L16.5859 42.1767C16.0907 42.4509 15.4791 42.4193 15.0174 42.0918C14.5537 41.7643 14.3189 41.202 14.4077 40.6436L15.045 36.7409L12.3597 33.9885C11.9729 33.5919 11.8388 33.0098 12.0164 32.485C12.192 31.9582 12.6458 31.5774 13.1962 31.4926L16.8484 30.9342L18.4939 27.4281C18.9793 26.3883 20.686 26.3883 21.1713 27.4281L22.8169 30.9342L26.469 31.4926C27.0175 31.5754 27.4733 31.9582 27.6489 32.485C27.8264 33.0098 27.6923 33.5919 27.3055 33.9885Z" fill="#1EC790"/>
</svg>
