<svg width="17" height="17" viewBox="0 0 17 17" fill="none" xmlns="http://www.w3.org/2000/svg">
<path d="M16.02 8.12C16.02 9.14667 14.964 9.66 12.852 9.66C10.7107 9.66 9.64 10.716 9.64 12.828C9.64 14.9693 9.12667 16.04 8.1 16.04C7.07333 16.04 6.56 14.9693 6.56 12.828C6.56 10.716 5.504 9.66 3.392 9.66C1.25067 9.66 0.18 9.14667 0.18 8.12C0.18 7.09333 1.25067 6.58 3.392 6.58C5.504 6.58 6.56 5.50933 6.56 3.368C6.56 1.256 7.07333 0.199999 8.1 0.199999C9.12667 0.199999 9.64 1.256 9.64 3.368C9.64 5.50933 10.7107 6.58 12.852 6.58C14.964 6.58 16.02 7.09333 16.02 8.12Z" fill="#1EC790"/>
</svg>
