<svg width="42" height="42" viewBox="0 0 42 42" fill="none" xmlns="http://www.w3.org/2000/svg">
<path d="M21 0C9.38298 0 0 9.38298 0 21C0 32.617 9.38298 42 21 42C32.617 42 42 32.617 42 21C42 9.38298 32.617 0 21 0ZM34.8511 13.8511C33.9575 14.9681 33.0638 15.8617 32.1702 16.5319C32.1702 16.5319 32.1702 16.7553 32.1702 16.9787C32.1702 21 30.8298 24.3511 28.1489 27.4787C25.2447 30.8298 21.2234 32.617 16.5319 32.617C13.6277 32.617 10.7234 31.7234 8.04255 30.1596C7.81915 29.9362 7.81915 29.9362 7.81915 29.7128C7.81915 29.4894 8.04255 29.4894 8.26596 29.4894C8.93617 29.4894 9.15958 29.4894 9.60638 29.4894C11.617 29.4894 13.4043 29.0426 14.9681 27.9255C14.0745 27.7021 13.1809 27.2553 12.2872 26.5851C11.3936 25.9149 10.9468 25.0213 10.7234 24.1277C10.7234 24.1277 10.7234 23.9043 10.7234 23.6809C10.7234 23.4574 10.9468 23.4574 11.1702 23.4574C11.1702 23.4574 11.1702 23.4574 11.3936 23.4574C11.617 23.4574 11.617 23.4574 11.617 23.4574C10.0532 22.3404 9.15957 20.7766 9.15957 18.5426C9.15957 18.5426 9.15957 18.3192 9.38298 18.0957C9.60638 18.0957 9.60638 18.0957 9.82979 18.0957C10.0532 18.0957 10.2766 18.3192 10.7234 18.5426C9.82979 17.4255 9.38298 16.3085 9.38298 14.7447C9.38298 13.6277 9.60638 12.734 10.2766 11.8404C10.2766 11.617 10.5 11.617 10.5 11.617C10.5 11.617 10.7234 11.617 10.9468 11.8404C13.6277 14.9681 16.9787 16.7553 21 17.2021C21 17.2021 21 16.9787 21 16.7553C21 16.5319 21 16.5319 21 16.3085C20.7766 14.7447 21.2234 13.4043 22.3404 12.2872C23.4574 11.1702 24.7979 10.5 26.3617 10.5C27.9255 10.5 29.266 11.1702 30.383 12.2872C31.5 12.0638 32.617 11.617 33.5106 11.1702C33.734 11.1702 33.734 11.1702 33.9574 11.1702C34.1809 11.1702 34.1809 11.3936 34.1809 11.617C33.9574 12.2872 33.5106 12.9574 33.0638 13.6277L34.4043 13.1809C34.6277 13.1809 34.8511 13.1809 34.8511 13.1809C34.8511 13.4043 34.8511 13.6277 34.8511 13.8511Z" fill="#C90000"/>
</svg>
